<?xml version="1.0" standalone="no"?>
<!DOCTYPE svg PUBLIC "-//W3C//DTD SVG 20010904//EN"
 "http://www.w3.org/TR/2001/REC-SVG-20010904/DTD/svg10.dtd">
<svg version="1.0" xmlns="http://www.w3.org/2000/svg"
 width="1024.000000pt" height="208.000000pt" viewBox="0 0 1024.000000 208.000000"
 preserveAspectRatio="xMidYMid meet">

<g transform="translate(0.000000,208.000000) scale(0.100000,-0.100000)"
fill="#000000" stroke="none">
<path d="M6605 1948 c-3 -7 -4 -281 -3 -608 l3 -595 190 0 190 0 0 605 0 605
-188 3 c-144 2 -189 0 -192 -10z m335 -598 l0 -560 -145 0 -145 0 0 560 0 560
145 0 145 0 0 -560z"/>
<path d="M7105 1938 c-3 -13 -4 -77 -3 -143 l3 -120 243 -3 242 -2 0 -459 c0
-409 2 -460 16 -465 20 -8 338 -8 358 0 14 5 16 56 16 465 l0 459 243 2 242 3
3 120 c1 66 0 130 -3 143 l-5 22 -675 0 -675 0 -5 -22z m1313 -125 l3 -93
-243 -2 -243 -3 -3 -463 -2 -463 -143 3 -142 3 -5 460 -5 460 -240 3 -240 2 2
93 c1 50 2 93 3 95 0 1 282 1 628 0 l627 -3 3 -92z"/>
<path d="M550 1903 c-38 -19 -98 -71 -201 -173 -184 -183 -212 -223 -217 -310
-4 -61 -2 -68 34 -123 l38 -57 24 45 c17 35 20 50 12 64 -15 29 -11 82 8 118
24 45 182 214 270 289 142 121 176 109 437 -155 66 -66 123 -121 126 -121 4 0
12 20 19 46 13 45 13 45 -21 81 -88 92 -304 285 -339 303 -56 29 -124 26 -190
-7z"/>
<path d="M2245 1924 c-11 -2 -45 -9 -75 -15 -87 -18 -193 -72 -255 -130 -67
-63 -120 -165 -135 -259 -13 -82 -13 -244 0 -335 28 -197 178 -347 395 -396
85 -20 645 -20 730 0 136 30 259 109 325 208 58 89 75 167 75 348 -1 121 -5
176 -18 225 -35 127 -117 229 -231 286 -131 64 -149 67 -486 70 -168 1 -314 1
-325 -2z m587 -246 c74 -35 111 -90 129 -191 13 -83 7 -272 -12 -330 -18 -55
-71 -111 -131 -138 -51 -23 -63 -24 -278 -24 -215 0 -227 1 -277 24 -62 28
-117 84 -133 138 -7 21 -14 97 -17 168 -8 203 25 298 119 346 64 33 111 38
333 36 205 -2 211 -3 267 -29z"/>
<path d="M3510 1727 c0 -112 3 -373 7 -580 l6 -377 169 0 168 0 0 470 0 470
257 0 c235 0 260 -2 298 -20 57 -28 75 -63 75 -148 0 -55 -4 -75 -21 -96 -42
-53 -59 -56 -309 -56 -126 0 -230 -1 -230 -3 0 -1 138 -141 308 -310 l307
-307 185 0 185 0 -193 193 c-105 106 -192 195 -192 198 0 4 20 9 45 12 63 9
134 48 179 97 65 72 71 95 71 275 0 155 -1 162 -28 217 -32 66 -70 101 -147
137 l-55 26 -542 3 -543 3 0 -204z"/>
<path d="M5020 1349 l0 -580 588 3 c650 4 637 3 739 71 60 40 119 125 133 194
23 107 -22 226 -112 292 l-46 34 38 49 c49 61 64 107 64 188 -1 154 -127 286
-304 320 -31 6 -266 10 -576 10 l-524 0 0 -581z m1000 346 c89 -46 95 -156 11
-208 -35 -21 -46 -22 -348 -25 l-313 -3 0 88 c0 48 -3 105 -6 126 l-7 37 317
0 c260 0 322 -3 346 -15z m57 -468 c97 -52 99 -172 3 -222 -24 -12 -88 -15
-370 -15 l-340 0 0 123 c0 68 2 126 4 128 3 2 154 4 338 4 294 -1 337 -3 365
-18z"/>
<path d="M8870 1916 c-105 -29 -177 -84 -222 -168 -20 -37 -23 -58 -23 -148 0
-96 2 -109 27 -151 37 -63 93 -115 158 -147 l55 -27 410 -5 c455 -6 454 -5
495 -73 25 -41 25 -73 0 -114 -42 -70 -20 -67 -570 -73 l-495 -5 -3 -117 -3
-118 535 0 c355 0 553 4 588 11 174 37 285 159 296 324 11 167 -84 304 -247
356 -62 20 -90 22 -454 25 -438 4 -438 4 -466 77 -13 34 -12 42 2 73 9 19 31
43 49 54 32 19 52 20 536 20 l502 0 0 110 0 110 -562 -1 c-416 -1 -575 -4
-608 -13z"/>
<path d="M893 1852 c-18 -2 -33 -5 -33 -8 0 -17 89 -80 122 -86 83 -15 143
-88 142 -174 -2 -95 -69 -207 -219 -363 -83 -87 -218 -202 -267 -227 l-28 -15
34 -29 c18 -17 39 -30 45 -30 33 0 201 139 313 259 233 251 277 431 142 581
-63 69 -156 104 -251 92z"/>
<path d="M650 1734 c-165 -123 -338 -317 -403 -451 -54 -114 -61 -190 -23
-267 34 -70 112 -139 175 -157 48 -14 147 -17 158 -5 4 4 -9 23 -29 42 -24 25
-47 37 -74 41 -49 6 -109 44 -135 86 -30 48 -23 144 16 219 68 129 274 350
409 439 l67 44 -38 32 c-21 18 -40 32 -43 33 -3 0 -39 -25 -80 -56z"/>
<path d="M1192 1416 c-17 -36 -19 -51 -12 -72 28 -72 2 -120 -146 -273 -126
-131 -219 -201 -266 -201 -54 0 -113 43 -269 197 l-156 154 -11 -28 c-18 -45
-17 -56 3 -87 32 -48 304 -294 349 -316 50 -24 113 -26 163 -5 83 35 355 297
413 399 47 81 37 170 -28 254 l-18 23 -22 -45z"/>
<path d="M2708 432 l-28 -3 0 -97 c0 -120 -5 -139 -41 -157 -40 -21 -57 -19
-90 14 -28 29 -29 32 -29 135 l0 106 -30 0 -30 0 0 -100 c0 -119 17 -170 65
-200 66 -41 163 -16 197 51 15 30 18 55 16 145 l-3 109 -27 -3z"/>
<path d="M2961 424 c-45 -19 -60 -41 -61 -86 0 -43 25 -73 71 -82 53 -10 99
-37 99 -57 0 -41 -82 -49 -137 -13 -20 13 -23 12 -33 -7 -16 -30 -7 -44 38
-57 82 -25 173 -6 187 40 12 36 8 78 -10 97 -8 10 -42 26 -75 36 -65 20 -84
34 -78 62 6 32 51 39 98 15 l41 -20 12 25 c13 28 4 37 -53 53 -46 13 -58 12
-99 -6z"/>
<path d="M3285 431 c-3 -2 -5 -76 -5 -163 l0 -158 30 0 30 0 0 155 c0 85 -1
158 -2 162 -3 8 -47 11 -53 4z"/>
<path d="M4374 421 c-45 -20 -54 -35 -54 -86 0 -40 27 -70 71 -79 82 -16 121
-56 84 -86 -18 -15 -89 -6 -122 16 -20 13 -23 12 -33 -7 -16 -30 -7 -44 38
-57 75 -23 162 -9 182 28 15 29 12 96 -5 110 -8 7 -43 23 -77 35 -66 24 -85
42 -75 68 10 27 53 31 96 10 37 -18 39 -19 50 -1 18 29 14 35 -36 52 -59 20
-69 20 -119 -3z"/>
<path d="M4775 433 c-58 -12 -93 -76 -69 -131 10 -26 22 -34 71 -48 87 -25
118 -60 72 -85 -25 -13 -84 -4 -117 18 -13 8 -24 13 -25 11 -1 -2 -8 -14 -15
-27 -16 -28 -9 -35 48 -51 72 -21 161 -6 180 30 17 31 12 88 -10 110 -10 10
-43 26 -72 35 -70 20 -80 28 -76 56 5 37 45 46 95 22 l41 -20 11 24 c6 13 11
26 11 28 0 6 -93 35 -109 34 -9 -1 -25 -4 -36 -6z"/>
<path d="M5353 429 c-64 -19 -97 -105 -55 -143 11 -9 46 -26 80 -37 33 -11 66
-26 72 -33 15 -19 2 -45 -27 -52 -25 -7 -99 10 -120 28 -8 6 -15 3 -22 -11
-17 -32 -14 -38 34 -56 66 -26 151 -17 182 19 53 61 16 130 -83 155 -57 15
-74 27 -74 52 0 34 43 44 95 24 26 -9 47 -16 48 -14 2 2 8 12 16 21 11 14 9
19 -16 32 -40 20 -92 27 -130 15z"/>
<path d="M5740 418 c-62 -32 -92 -85 -87 -156 9 -121 134 -192 228 -129 58 39
81 83 77 148 -5 68 -35 114 -92 140 -53 24 -73 24 -126 -3z m131 -67 c51 -51
36 -146 -27 -176 -42 -20 -77 -11 -109 27 -58 68 -14 178 70 178 27 0 44 -8
66 -29z"/>
<path d="M6138 432 l-28 -3 0 -160 0 -159 115 0 115 0 0 25 c0 25 -1 25 -85
25 l-84 0 -3 138 -3 137 -27 -3z"/>
<path d="M6698 432 l-28 -3 0 -109 c0 -121 -10 -145 -66 -156 -24 -5 -37 0
-60 19 -28 25 -29 28 -32 136 l-4 111 -29 0 -29 0 0 -92 c0 -113 11 -156 49
-192 60 -57 172 -41 213 30 16 27 18 51 16 145 l-3 114 -27 -3z"/>
<path d="M7280 273 l0 -163 30 0 30 0 0 163 0 162 -30 0 -30 0 0 -162z"/>
<path d="M7580 418 c-65 -34 -85 -67 -85 -143 0 -49 5 -70 21 -92 71 -96 186
-97 257 -1 31 42 33 123 5 173 -24 41 -92 85 -133 85 -11 0 -41 -10 -65 -22z
m126 -61 c20 -18 28 -35 31 -74 5 -45 2 -54 -25 -84 -23 -26 -37 -33 -67 -33
-86 0 -129 121 -66 185 37 37 88 39 127 6z"/>
<path d="M7968 432 c-16 -3 -18 -19 -18 -163 l0 -159 30 0 30 0 0 100 c0 55 3
100 8 100 4 0 42 -45 85 -100 61 -77 84 -100 103 -100 l24 0 0 160 0 160 -30
0 -29 0 -3 -102 -3 -103 -80 102 c-84 107 -89 112 -117 105z"/>
<path d="M8463 429 c-63 -19 -97 -105 -55 -142 9 -9 47 -26 82 -39 56 -20 65
-27 68 -50 3 -22 -2 -29 -23 -34 -27 -7 -100 10 -122 28 -11 9 -33 -17 -33
-41 0 -20 88 -44 145 -39 65 6 93 27 101 79 8 50 -23 85 -94 105 -67 19 -82
30 -82 55 0 34 43 44 96 24 39 -15 48 -15 55 -4 14 23 10 35 -15 47 -38 17
-88 22 -123 11z"/>
<path d="M8985 432 c-3 -3 -5 -77 -5 -164 l0 -158 115 0 115 0 0 25 c0 24 -2
24 -82 27 l-83 3 -5 135 c-5 132 -6 135 -28 136 -12 0 -24 -2 -27 -4z"/>
<path d="M9398 433 l-128 -4 0 -24 c0 -23 3 -25 50 -25 l50 0 0 -135 0 -135
30 0 30 0 0 135 0 135 50 0 c49 0 50 1 50 30 0 17 -1 29 -2 28 -2 -1 -60 -4
-130 -5z"/>
<path d="M2060 270 l0 -160 84 0 c92 0 141 13 156 40 18 34 11 79 -15 106 -24
24 -24 25 -5 44 26 26 25 70 -1 104 -20 25 -24 26 -120 26 l-99 0 0 -160z
m176 85 c9 -38 -11 -55 -67 -55 l-49 0 0 40 0 40 55 0 c50 0 55 -2 61 -25z
m12 -140 c5 -39 -19 -55 -80 -55 l-48 0 0 45 0 46 63 -3 c60 -3 62 -4 65 -33z"/>
<path d="M3510 270 l0 -160 30 0 30 0 0 100 c0 55 3 100 8 100 4 0 43 -45 86
-100 60 -76 85 -100 103 -100 l23 0 0 160 0 160 -30 0 -29 0 -3 -102 -3 -102
-80 101 c-66 84 -85 102 -107 103 l-28 0 0 -160z"/>
<path d="M3960 270 l0 -160 110 0 110 0 0 28 0 27 -80 -3 -80 -4 0 46 0 45 68
3 c61 3 67 5 70 26 3 21 0 22 -67 22 l-71 0 0 40 0 40 80 0 c79 0 80 0 80 25
l0 25 -110 0 -110 0 0 -160z"/>
<path d="M6870 405 c0 -23 3 -25 53 -25 l52 0 0 -132 0 -133 28 -3 27 -3 0
135 0 136 55 0 c52 0 55 1 55 25 l0 25 -135 0 -135 0 0 -25z"/>
<path d="M9680 270 l0 -160 73 0 c96 1 148 24 176 79 27 52 27 125 1 169 -34
55 -73 72 -167 72 l-83 0 0 -160z m181 81 c55 -55 33 -161 -39 -180 -83 -24
-82 -25 -82 99 l0 110 46 0 c37 0 51 -5 75 -29z"/>
</g>
</svg>
